<svg width="80" height="24" viewBox="0 0 80 24" fill="none" xmlns="http://www.w3.org/2000/svg">
<path d="M38.5195 17.2031C37.9922 17.8346 37.2467 18.3262 36.2832 18.6777C35.3197 19.0228 34.252 19.1953 33.0801 19.1953C31.8496 19.1953 30.7689 18.9284 29.8379 18.3945C28.9134 17.8542 28.1973 17.0729 27.6895 16.0508C27.1882 15.0286 26.931 13.8275 26.918 12.4473V11.4805C26.918 10.0612 27.1556 8.83398 27.6309 7.79883C28.1126 6.75716 28.8027 5.96289 29.7012 5.41602C30.6061 4.86263 31.6641 4.58594 32.875 4.58594C34.5612 4.58594 35.8796 4.98958 36.8301 5.79688C37.7806 6.59766 38.3438 7.76628 38.5195 9.30273H35.668C35.5378 8.48893 35.248 7.89323 34.7988 7.51562C34.3561 7.13802 33.7441 6.94922 32.9629 6.94922C31.9668 6.94922 31.2083 7.32357 30.6875 8.07227C30.1667 8.82096 29.903 9.93424 29.8965 11.4121V12.3203C29.8965 13.8112 30.1797 14.9375 30.7461 15.6992C31.3125 16.4609 32.1426 16.8418 33.2363 16.8418C34.3366 16.8418 35.1211 16.6074 35.5898 16.1387V13.6875H32.9238V11.5293H38.5195V17.2031ZM48.9297 16.0703H43.793L42.8164 19H39.7012L44.9941 4.78125H47.709L53.0312 19H49.916L48.9297 16.0703ZM44.584 13.6973H48.1387L46.3516 8.375L44.584 13.6973Z" fill="black"/>
</svg>
